<svg width="800" height="800" viewBox="0 0 800 800" fill="none" xmlns="http://www.w3.org/2000/svg">
<g clip-path="url(#clip0_1_5)">
<path d="M400 800C620.914 800 800 620.914 800 400C800 179.086 620.914 0 400 0C179.086 0 0 179.086 0 400C0 620.914 179.086 800 400 800Z" fill="white"/>
<path d="M400 196.484C289.477 196.484 199.891 287.602 199.891 400C199.891 512.398 289.484 603.516 400 603.516C510.516 603.516 600.109 512.398 600.109 400C600.109 287.602 510.516 196.484 400 196.484ZM400 582.281C301.016 582.281 220.766 500.672 220.766 400C220.766 299.328 301.016 217.719 400 217.719C498.984 217.719 579.219 299.328 579.219 400C579.219 500.672 498.984 582.281 400 582.281ZM482.992 386.875V370.234C482.937 350.464 475.063 331.519 461.089 317.533C447.115 303.548 428.176 295.658 408.406 295.586H395.039C375.272 295.662 356.338 303.554 342.369 317.539C328.4 331.525 320.53 350.468 320.477 370.234V386.875L311.258 403.859V428.359C311.276 450.383 320.026 471.501 335.589 487.084C351.151 502.667 372.258 511.445 394.281 511.492H409.18C431.192 511.412 452.277 502.623 467.83 487.047C483.384 471.47 492.14 450.371 492.188 428.359V403.852L482.992 386.875ZM410.445 462.031V481.641C410.449 483.072 410.098 484.482 409.423 485.745C408.748 487.008 407.771 488.083 406.578 488.875L406.523 488.93L406.469 488.984H406.414L406.359 489.039H406.305L406.242 489.094L406.187 489.148H406.133L406.023 489.203L405.969 489.258L405.914 489.313H405.805L405.75 489.367H405.695L405.641 489.422L405.586 489.477H405.469L405.359 489.531H405.289L405.234 489.586L405.18 489.641H405.07L405.016 489.695H404.914L404.859 489.75H404.805L404.75 489.805H404.688L404.625 489.859H404.586L404.531 489.914H404.359L404.305 489.969H404.195L404.141 490.023H403.906L403.852 490.078H403.625V490.133H403.453L403.281 490.188H403.055C402.624 490.282 402.183 490.319 401.742 490.297H401.687C401.403 490.307 401.117 490.289 400.836 490.242C400.467 490.243 400.101 490.185 399.75 490.07H399.695L399.586 490.016H399.516L399.344 489.961L399.117 489.906H399.008L398.945 489.852H398.891L398.773 489.797H398.719C398.595 489.732 398.467 489.675 398.336 489.625L398.164 489.57V489.516H398.047L397.992 489.461H397.937L397.883 489.406L397.766 489.352H397.711L397.594 489.297L397.539 489.242L397.422 489.187L397.367 489.133L397.25 489.078H397.195V489.062H397.141L397.031 489.008C395.807 488.214 394.801 487.125 394.105 485.843C393.409 484.56 393.045 483.123 393.047 481.664V462.031C388.045 459.989 383.903 456.281 381.321 451.535C378.738 446.789 377.875 441.297 378.877 435.988C379.879 430.679 382.684 425.879 386.818 422.4C390.952 418.922 396.16 416.978 401.563 416.898H402.016C407.415 416.987 412.617 418.936 416.745 422.418C420.872 425.9 423.671 430.7 424.667 436.007C425.664 441.313 424.798 446.802 422.215 451.544C419.632 456.285 415.491 459.99 410.492 462.031H410.445ZM449.719 387.383H353.766V370.195C353.797 359.26 358.152 348.78 365.882 341.045C373.612 333.309 384.088 328.945 395.023 328.906H408.406C419.357 328.929 429.852 333.289 437.596 341.031C445.34 348.773 449.702 359.268 449.727 370.219L449.719 387.383Z" fill="#231F21"/>
</g>
<defs>
<clipPath id="clip0_1_5">
<rect width="800" height="800" fill="white"/>
</clipPath>
</defs>
</svg>
